# xmcd
#
# Track frame offsets: 
#        150
#        16140
#        35184
#        51293
#        67509
#        95982
#        116619
#        133017
#        149450
#        169840
#        184396
#        206023
#
# Disc length: 2847 seconds
#
# Revision: 4
# Processed by: cddbd v1.5.2PL0 Copyright (c) Steve Scherf et al.
# Submitted via: ExactAudioCopy v0.99pb3
#
DISCID=b40b1d0c
DTITLE=Sonny Landreth - South of I-10
DYEAR=1900
DGENRE=Blues
TTITLE0=Shootin for the moon
TTITLE1=Creole angel
TTITLE2=Native stepson
TTITLE3=Orphans of the motherland
TTITLE4=Congo sqare
TTITLE5=Turning wheel
TTITLE6=South of 1 - 10
TTITLE7=Cajun waltz
TTITLE8=Mojo boogie
TTITLE9=Cèst chaud
TTITLE10=Great gulf wind
TTITLE11=Keine Angabe
EXTD=
EXTT0=
EXTT1=
EXTT2=
EXTT3=
EXTT4=
EXTT5=
EXTT6=
EXTT7=
EXTT8=
EXTT9=
EXTT10=
EXTT11=
PLAYORDER=
